<?xml version="1.0" standalone="no"?>
<!DOCTYPE svg PUBLIC "-//W3C//DTD SVG 20010904//EN"
 "http://www.w3.org/TR/2001/REC-SVG-20010904/DTD/svg10.dtd">
<svg version="1.0" xmlns="http://www.w3.org/2000/svg"
 width="1483.000000pt" height="750.000000pt" viewBox="0 0 1483.000000 750.000000"
 preserveAspectRatio="xMidYMid meet">

<g transform="translate(0.000000,750.000000) scale(0.100000,-0.100000)"
fill="#000000" stroke="none">
<path d="M1075 6617 c-30 -47 18 -127 104 -172 46 -23 536 -183 585 -190 61
-9 86 6 86 52 0 84 -83 144 -280 202 -58 17 -141 45 -185 62 -187 73 -283 87
-310 46z"/>
<path d="M2550 6507 c-98 -41 -94 -25 -36 -177 29 -74 111 -259 183 -410 72
-151 147 -313 168 -360 21 -47 52 -112 70 -145 43 -78 57 -132 46 -173 -5 -18
-6 -32 -2 -32 26 0 367 150 645 284 99 47 187 86 198 86 10 0 18 5 18 10 0 6
8 10 19 10 10 0 30 9 44 20 14 11 32 20 41 20 9 0 16 4 16 9 0 5 24 16 53 25
28 8 129 53 222 99 173 85 267 123 283 113 5 -3 12 -49 15 -103 3 -54 10 -109
16 -123 8 -19 9 10 5 115 -4 77 -7 141 -8 141 0 1 -418 139 -928 308 -648 214
-940 306 -970 306 -24 0 -68 -11 -98 -23z"/>
<path d="M901 5898 c4 -40 8 -89 8 -109 l1 -36 -82 -11 c-223 -30 -274 -26
-448 37 -104 38 -149 39 -187 7 -25 -22 -28 -31 -31 -104 l-4 -81 93 -45 c52
-25 193 -82 314 -126 231 -86 388 -155 439 -194 17 -12 53 -26 79 -29 44 -6
216 -74 567 -222 239 -101 686 -265 724 -265 37 0 80 20 104 49 16 20 15 96
-2 130 -18 34 -39 48 -128 85 -101 42 -92 51 71 71 75 9 108 18 122 31 26 27
33 65 15 89 -21 30 -132 32 -312 6 -81 -12 -182 -25 -224 -28 l-76 -6 -145 63
c-79 35 -241 100 -359 145 -476 183 -460 175 -460 221 0 29 20 38 100 48 30 4
70 11 88 17 28 9 32 15 32 48 0 20 -7 47 -16 59 -15 22 -21 23 -127 20 l-112
-3 -16 60 c-10 33 -18 75 -18 93 -1 30 1 32 27 26 15 -4 79 -28 142 -54 118
-50 198 -75 207 -66 8 7 -7 65 -19 72 -7 5 -9 -2 -4 -20 6 -23 3 -26 -19 -26
-14 0 -85 24 -158 54 -72 30 -146 57 -162 60 l-31 7 7 -73z"/>
<path d="M1464 5844 c15 -108 3 -96 163 -164 239 -101 529 -208 539 -197 3 3
-1 38 -8 78 l-13 73 -325 123 c-179 68 -333 126 -344 129 -17 6 -18 2 -12 -42z"/>
<path d="M2355 5542 c-12 -12 -3 -80 15 -119 29 -64 39 -52 19 25 -20 78 -15
83 56 58 51 -17 56 -14 20 10 -27 18 -101 35 -110 26z"/>
<path d="M2913 5202 c-28 -2 -40 -7 -37 -16 5 -14 71 -9 80 6 8 13 5 13 -43
10z"/>
<path d="M6646 2543 c6 -55 3 -69 -21 -119 -33 -67 -65 -89 -148 -99 l-62 -8
45 -8 c27 -6 57 -5 76 1 36 12 85 61 109 110 21 40 24 136 7 165 -10 16 -11 8
-6 -42z"/>
<path d="M6305 2505 c13 -84 35 -144 61 -164 37 -29 55 -26 22 3 -34 30 -54
70 -62 126 -4 25 -11 52 -17 60 -8 11 -9 4 -4 -25z"/>
<path d="M7387 1977 c-4 -10 -7 -28 -7 -40 1 -20 2 -20 11 -4 6 10 9 28 7 40
-3 20 -4 20 -11 4z"/>
<path d="M7776 1876 c12 -53 10 -174 -4 -188 -9 -9 -67 -14 -195 -18 -137 -4
-171 -8 -136 -14 25 -4 102 -6 171 -4 140 3 172 16 191 73 10 30 -5 134 -24
165 -6 10 -7 6 -3 -14z"/>
<path d="M7357 1821 c-4 -18 -6 -52 -6 -75 1 -34 3 -29 10 24 9 71 7 105 -4
51z"/>
<path d="M7360 1680 c0 -5 5 -10 10 -10 6 0 10 5 10 10 0 6 -4 10 -10 10 -5 0
-10 -4 -10 -10z"/>
<path d="M1512 1496 c-143 -130 -200 -447 -121 -683 27 -81 83 -167 145 -222
184 -162 452 -142 580 45 45 65 42 73 -31 119 -47 29 -52 30 -185 31 -177 2
-212 19 -261 128 -18 42 -23 78 -30 225 -7 163 -27 316 -47 371 -9 23 -9 23
-50 -14z"/>
<path d="M3359 1311 c-220 -71 -372 -324 -386 -646 -6 -146 16 -257 75 -369
43 -84 143 -188 218 -228 174 -94 372 -70 516 60 183 166 272 541 192 813 -53
179 -201 331 -369 375 -69 19 -179 16 -246 -5z m271 -390 c68 -41 104 -117
103 -219 0 -42 -7 -103 -16 -135 -9 -33 -13 -65 -10 -73 3 -8 0 -14 -6 -14 -6
0 -11 -5 -11 -10 0 -17 -49 -62 -60 -55 -6 3 -10 1 -10 -4 0 -6 -10 -11 -21
-11 -12 0 -39 -5 -60 -12 -74 -22 -154 26 -213 127 -37 62 -46 183 -19 239 11
23 31 63 44 90 53 110 171 142 279 77z"/>
<path d="M4094 935 c21 -149 29 -195 32 -195 7 0 138 82 149 93 6 5 -20 -7
-56 -27 -36 -20 -68 -36 -72 -36 -3 0 -10 30 -17 68 -6 37 -18 81 -26 97 l-14
30 4 -30z"/>
<path d="M2808 758 c-4 -9 -10 -48 -14 -86 l-6 -71 -52 20 c-56 21 -70 23 -62
10 9 -13 93 -51 115 -51 17 0 20 10 26 84 7 86 4 124 -7 94z"/>
</g>
</svg>
